<svg id="Layer_1" data-name="Layer 1" xmlns="http://www.w3.org/2000/svg" viewBox="0 0 985.78 816.56"><defs><style>.cls-1{fill:#3f4955;}.cls-2{fill:#caaa55;}.cls-3{fill:#fefefd;}</style></defs><path class="cls-1" d="M713.49,623H302.76c0-7,0-13.77,0-20.54,0-8.83.36-17.67.07-26.49-.67-20.47,16.45-36.21,35.76-36.13,91.32.37,182.64.17,274,.16,22,0,44,.44,66-.14a35,35,0,0,1,35.93,35.9c-.27,14,0,28-.06,42C714.39,619.4,714.77,621.11,713.49,623Z"/><path class="cls-2" d="M814.34,646.35c11.88-8.8,20.16-19.91,29.94-30.32-5.19-2.41-6.49-6.69-7.1-10.91a122.09,122.09,0,0,1-.73-27.83c.76-8.94,1.26-17.91,2.48-26.8,1.11-8,1.88-16.11,4.59-23.66,4-1.54,6.64.62,8.89,2.62,7.61,6.76,12.21,15.13,12.8,25.53a89.15,89.15,0,0,1-5.81,38.12,33.33,33.33,0,0,0-.91,3.39c5.14-4.06,24.39-34,30.13-46.82-7.15-.13-8.57-6.09-10.61-10.93-3.3-7.84-4.63-16.28-5.85-24.64a301.21,301.21,0,0,1-3-34.73c-.25-8.33,1.83-9.48,9.44-6,12.11,5.57,17.4,15.77,19.37,28.26a75.94,75.94,0,0,1,.1,24.81,6.85,6.85,0,0,0,.31,3.09,260,260,0,0,0,17.77-46.91c-5.87.06-8.69-3.7-11.3-7.58-6.87-10.17-10.91-21.61-14.51-33.22-1.87-6-3.53-12.1-4.87-18.27a10.48,10.48,0,0,1-.11-5.36c3-1.63,5.91-1.13,8.81-.35,11.77,3.15,19,11,22.7,22.31,2.18,6.64,3.35,13.51,4.63,20.43A259.5,259.5,0,0,0,929.18,413c-5.59.51-9-2.78-12.54-6-7.13-6.63-12.51-14.6-17.33-23-3.89-6.75-7.9-13.46-10.16-20.77,1-2.21,2.68-2.71,4.63-2.85,11.89-.81,20.84,4,27.55,13.74a67.49,67.49,0,0,1,7.9,15.63c1.64-3.72,1-26.89-.91-35.35-7.61-.09-13.42-4.37-18.76-9.1a145.1,145.1,0,0,1-23.22-26c-.91-1.32-.92-1.32-1.28-4.34a17.81,17.81,0,0,1,11.77-2.49c9,1.05,16.79,4.64,22.12,12.48,1.85,2.72,4,5.24,6.47,8.49.87-9.63-4.36-17.21-4.71-26-14.9.37-24.53-9.29-34.72-17.67-3.78-3.09-8-6-10.34-11.16,2.91-3.54,7.17-3.83,11.1-4.12,8.94-.68,15.9,3.86,22.32,9.41,1.74,1.5,3.22,3.33,6.13,4.42-1.89-8.53-5.45-15.94-8.23-24.1a11,11,0,0,1-10.22,1.5A99.59,99.59,0,0,1,863,246.89a9.2,9.2,0,0,1-1.1-1.49c5.15-4,10.73-5.92,17.15-4.53,6.81,1.48,12.55,5.09,17.87,9.46,1.76,1.46,3.55,2.89,5.62,4.57a35.27,35.27,0,0,0-.59-7.7c-1.5-8.81-3.56-17.7-1.17-26.65,1.25-4.67,2.15-9.76,7.26-12.52,3,2.88,3.2,6.74,4.24,10.09a77.37,77.37,0,0,1,3.59,26,45.58,45.58,0,0,1-1.9,11.76c-.9,2.9-2,5.67-5.25,6.76.4,4.86,3,8.64,4.61,12.78a324.89,324.89,0,0,1,21.36,132.91,360.05,360.05,0,0,1-5,43.52,353.8,353.8,0,0,1-14.62,55.28,371.75,371.75,0,0,1-36.2,75.27A407.41,407.41,0,0,1,839.59,635a388,388,0,0,1-35.42,35.05,373.16,373.16,0,0,1-54,39.79,413,413,0,0,1-65.94,32.64A448.62,448.62,0,0,1,627,759.81a20.39,20.39,0,0,1-7.79.43c-.82-4.38-.15-8.78-.19-13.68a389,389,0,0,0,109.08-38.24c-5.23-6-2.34-12-.63-17.66,3.83-12.59,9.69-24.35,16-35.88,5.9-10.8,11.43-21.81,17.81-32.34,2.94-4.86,6.16-9.55,9.26-14.31a7.08,7.08,0,0,1,5.52,3.2c5.48,8.27,7.13,17.4,6.31,27.06-1.16,13.85-7.37,25.6-15.06,36.89-4.57,6.7-9.78,12.82-14.84,19.2,13.4-7.13,25.38-16.22,37.45-25.89-5.26-5.55-4.29-12.15-3.45-18.75,2.63-20.56,9.23-40.05,15.74-59.58,1.47-4.42,3.24-8.7,4.87-13,.8-2.11,1.47-4.46,3.66-6,3.36,0,5.42,2.33,7.17,4.65a42.25,42.25,0,0,1,8.5,32.37,99.59,99.59,0,0,1-11,32.92A6.88,6.88,0,0,0,814.34,646.35Z"/><path class="cls-2" d="M175.88,651.3c-1.59-4-4.46-7.29-6.19-11a129.9,129.9,0,0,1-6.86-17.54c-2.07-7-4-14.08-3.75-21.48a43.09,43.09,0,0,1,8-24.24c1.93-2.68,4.09-5.27,7.85-5.84,2.72,1.79,3.56,4.81,4.54,7.5,3.9,10.77,7.82,21.54,11.16,32.49,3.72,12.22,7.09,24.55,8.85,37.25a64.49,64.49,0,0,1,.31,13,7.18,7.18,0,0,1-4.55,6.72c12.72,9.7,24.61,19,38.23,26.12-2.13-2.59-4.19-5.24-6.4-7.77-8.94-10.23-16.23-21.53-20.63-34.38-4.35-12.68-4.18-25.48,1.49-37.9a13.36,13.36,0,0,1,5.7-6.66c2.14.4,2.87,2.15,3.89,3.64,7.59,11.14,13.88,23,20.32,34.85,7.57,13.87,14.61,28,20,42.88A68.63,68.63,0,0,1,260.5,701c.42,2.51-1.25,4.71-3.07,7.47,34.63,18.05,70.79,30.86,109.07,37.73a69.12,69.12,0,0,1,.36,13.92,14.39,14.39,0,0,1-7.47-.14,393.08,393.08,0,0,1-64.14-19.85,418.55,418.55,0,0,1-53-26.33c-10.46-6.15-20.68-12.68-30.52-19.67a379.41,379.41,0,0,1-34.77-28.18c-9.11-8.27-17.76-17-26.07-26a380.54,380.54,0,0,1-35-44,388.3,388.3,0,0,1-35.18-63.51,378.12,378.12,0,0,1-21.3-64.7,314.77,314.77,0,0,1-6.71-42.75A309.75,309.75,0,0,1,51.13,384a349.52,349.52,0,0,1,3.48-39.12,324.55,324.55,0,0,1,8.58-40.8,160.87,160.87,0,0,1,9.19-25.24c.29,4.36-2.64,8.09-2.42,12.41l-.24.24.19-.29c5.07-5,9.78-10.34,16.21-13.8,7.47-4,14.91-3.89,22.51-.66a11.72,11.72,0,0,1,1.46.81c-3.22,10.77-29.7,28.47-44.51,30.06a145.42,145.42,0,0,0-5,23.54c2.94-1.67,4.33-4,5.82-6C71.54,318.36,78,314,86.56,312.75c5.34-.8,7.54-.65,14,2.08,1.17,2-.24,3.41-1.24,4.9-5.88,8.76-13.23,16.21-20.76,23.5a50.32,50.32,0,0,1-8.51,6.89c-3.84,2.39-7.81,4.41-12.71,4.06a186.87,186.87,0,0,0-1.05,35.42c2.2-4.09,3.83-8.41,6.27-12.29,5.32-8.47,12.14-15,22.47-16.59,3.92-.61,7.93-1.25,11.65,1.69-.55,5.29-3.51,9.61-5.92,14.06a181.42,181.42,0,0,1-14.33,22.74c-3.71,4.93-7.65,9.67-13.36,12.48-1.8.89-3.6,1.77-6.29,1a271.19,271.19,0,0,0,7.6,47.13c1.87-7.94,3.28-15.89,6.51-23.4,4.09-9.48,10.89-15.7,20.81-18.55a14,14,0,0,1,8.5,0,7.35,7.35,0,0,1,.48,5.71,216.56,216.56,0,0,1-13.9,42,60.84,60.84,0,0,1-6.69,11.07c-2.42,3.24-5.51,5.69-10.37,6.13,4.51,17.15,11,33.13,18.64,48.73-.45-6.63-1.7-13.19-1.27-19.78.61-9.11,1.31-18.3,6.66-26.24,5-7.42,11.51-12.65,20.34-14.09,2.51,1.65,2.68,3.78,2.78,6,.35,7.18-.58,14.3-1.22,21.41a202.78,202.78,0,0,1-4.67,30A90.56,90.56,0,0,1,106.67,542c-1.72,4.18-4.17,7.49-9.56,7.68a308.69,308.69,0,0,0,29.41,46.09c-.77-5.43-2.78-10.5-4-15.79-2.08-9.34-3.1-18.74-1.58-28.15a34.67,34.67,0,0,1,14.83-23.88c1.8-1.25,3.72-2.27,6.36-1.44,2.1,4.18,2.79,9,3.46,13.65,2.59,18.1,5,36.24,4.26,54.6a55.62,55.62,0,0,1-1.78,12.8c-1,3.44-2.17,6.65-6.41,8.3,11,12.71,21.44,25.19,34.22,35.42l.25.23Z"/><path class="cls-1" d="M551.75,291.82C508,332,459.72,364.33,407,390.34c-2.27-3.1-4.46-5.21-3.19-9,.8-2.34-.37-5-1.26-7.27a93.3,93.3,0,0,0-24.12-35.69c-2.71-2.49-5.7-4.61-9.46-4.35a19.56,19.56,0,0,1-3.92-6c43.92-38.56,92.67-70.15,144.54-98.38Z"/><path class="cls-1" d="M684.07,532h-351c0-6.19-.67-12.16.44-18a20.85,20.85,0,0,1,18-17,55.7,55.7,0,0,1,8-.37H571.94q43.74,0,87.48,0c5.25,0,10.32.52,14.83,3.51,6.12,4,9.57,9.65,9.79,17C684.18,521.93,684.07,526.75,684.07,532Z"/><path class="cls-1" d="M159.94,499.87l-2.26-.35c-.86-1.3-1.7-1.26-2.53,0l-2.19.33-1.53-1.63c25.27-16.39,50.31-33.15,74.93-50.5,19.87-14,39.73-28,58.64-43.32.38-.31.73-.66,1.07-1-.5-11.21,2.15-17,14.13-13.51,8-7.52,16.23-15.08,24.9-22.08s17.49-13.28,27.82-17.48c4.71-1.92,8.61-1.29,12.33,2.07a80.33,80.33,0,0,1,20.95,30c2.31,5.72,1,10.13-3.53,14.2C369,409,353.31,418.15,336.55,425.55c-2.29,1-4.58,2-6.85,3-.75.34-1.46.78-2.11,1.12-1.89,10.64-5.1,13.77-18.18,8.11-46.2,27.25-90.63,57.76-135.18,89-1.21-5.16-2.2-9.83-3.42-14.44-1.35-5.13-3.45-9.79-8.86-11.94C161.45,499.61,160.83,499.24,159.94,499.87Z"/><path class="cls-1" d="M473.77,205.07,355,285.8c-5.45-2.41-10.67-4.56-15.74-7a29.9,29.9,0,0,1-14.92-15.52c-3.46-8.11-.87-15.33,3.93-21.92,8.25-11.31,19.11-19.95,30.19-28.22,19.76-14.77,40.13-28.64,61.9-40.33a101.05,101.05,0,0,1,20.24-8.45c19.95-5.68,28.86,6.19,31.81,20.63C473.74,191.37,472.8,198,473.77,205.07Z"/><path class="cls-1" d="M442.09,415.12l119.37-81.05c5.22,2.29,10.11,4.37,14.95,6.56a31.61,31.61,0,0,1,12.82,10.83c5.51,7.79,5.72,15.79.8,23.89-2.85,4.68-6.57,8.59-10.38,12.57-7.65,8-16.32,14.65-25,21.31-9,6.85-18.37,13.08-27.81,19.26-11.81,7.74-23.71,15.3-36.47,21.4-6.62,3.16-13.42,5.83-20.79,6.81-9.54,1.26-16.63-2.44-21.43-10.53a31.9,31.9,0,0,1-4.8-17.1c.06-2.8.18-5.53-1.05-8.29A9.83,9.83,0,0,1,442.09,415.12Z"/><path class="cls-2" d="M215.05,785.76c-1.05-4.53,1.92-7.06,4.46-9.54,5.33-5.18,11.93-8.3,18.77-11,8.17-3.27,16.8-4,25.37-4.77a334.7,334.7,0,0,1,35.41-1.32c14.16.29,28.19,1.58,41.95,5.06a28.41,28.41,0,0,1,6.09,2.15c5.6,2.93,6.49,7.7,2.54,12.71-4.25,5.42-10.18,8.55-16.26,11.18-10.74,4.64-22.07,7-33.69,8.35a150.67,150.67,0,0,1-18.87,1.38c-16.76-.15-33.49-1.29-49.6-6.79A87.67,87.67,0,0,1,215.05,785.76Z"/><path class="cls-2" d="M771.06,785.54c-8.75,5.66-18.34,8.65-28.29,10.83-16.08,3.52-32.37,3.72-48.65,2.83-14.31-.77-28.42-3.26-41.61-9.14-6.16-2.75-12.47-5.66-16.37-11.74-3.57-5.57-2.35-9.7,3.63-12.3,6.62-2.88,13.73-3.75,20.76-4.83a204.29,204.29,0,0,1,43.29-1.83c10.42.64,20.89.88,31.24,2.65,11,1.89,21.14,5.73,29.81,12.8C768.12,777.46,771.61,780.38,771.06,785.54Z"/><path class="cls-2" d="M123.58,710.94c2.68-5.47,7.82-7,12.6-8.45,11-3.39,22.31-3.28,33.54-1.06,8.77,1.74,17.59,3.43,26.15,6,16.07,4.73,32.12,9.64,46.37,18.9,2.86,1.86,5.31,4,6.38,8-.62,6.53-6.3,8.32-11.64,9.86-11.24,3.24-22.73,2.46-34.13.88a181.61,181.61,0,0,1-37.17-8.84c-14-5.09-27.54-11.35-38.84-21.48a20.88,20.88,0,0,1-1.76-1.76C124.64,712.46,124.29,711.9,123.58,710.94Z"/><path class="cls-2" d="M862.05,710.42c-2,4.43-6.1,6.9-9.7,9.6-7.87,5.9-16.74,10-25.87,13.68-14.53,5.81-29.65,9.25-45.05,11.38-10.38,1.44-20.85,2.1-31.19-.66-3.23-.85-6.38-1.89-9-4-4.51-3.73-4.64-7.7-.38-11.83,2.77-2.68,6.17-4.46,9.56-6.21,11.71-6.07,24.2-10.07,36.71-14a221.24,221.24,0,0,1,34.31-7.64c10.58-1.55,21.26-1.11,31.4,3C856.34,705.12,860.06,706.4,862.05,710.42Z"/><path class="cls-2" d="M711.81,644.36c3.81,2.51,4.55,6.09,4.92,9.73,1.84,17.64-3.38,33-14.69,46.6a122.75,122.75,0,0,1-52.21,36.88,21.46,21.46,0,0,1-13.17,1.08c-2.86-.72-3.83-2.19-3.7-4.93.21-4.38,2.51-8,4.82-11.33a223.83,223.83,0,0,1,19.1-23.53c10.64-11.63,21.65-22.9,32.75-34.07C696.61,657.77,703.36,650.39,711.81,644.36Z"/><path class="cls-2" d="M274,644.8A46.26,46.26,0,0,1,284,652.85c18,17.52,35.46,35.54,52.18,54.28,5.53,6.2,10.68,12.73,14.38,20.24,1.44,2.92,3.56,6.18,1.27,9.32s-6,2.59-9.59,2c-11.44-1.8-21.29-7.18-30.68-13.52A129.06,129.06,0,0,1,283.53,700c-10.16-12.43-15.49-26.64-14.44-42.83C269.37,652.85,269.64,648.17,274,644.8Z"/><path class="cls-2" d="M167.19,694.33c-13-.3-25.16-4-36.85-9.37C116,678.31,103,669.42,90.15,660.2a172.58,172.58,0,0,1-14.67-11.88c-4.26-3.85-3.62-6.5,1.92-8.39,8-2.72,16.1-1.88,24.12-.3,13.5,2.65,25.73,8.76,37.88,14.85,13.21,6.62,26,14.06,37.07,24a17.24,17.24,0,0,1,4.78,6.27c1.5,3.67.66,6-2.84,7.81S171.06,694.47,167.19,694.33Z"/><path class="cls-2" d="M913.53,643.57c-.24,2.33-1.82,3.59-3.31,4.92a245.67,245.67,0,0,1-42.14,29.86c-7.35,4.19-14.81,8.19-22.86,10.87-10,3.32-20.13,5.63-30.75,5.08a9.08,9.08,0,0,1-2.45-.37c-3.07-1.09-6.85-1.49-7.87-5.29s1.76-6.13,4.09-8.53c7.62-7.81,16.66-13.68,26.14-18.86,15.72-8.59,31.41-17.33,49.11-21.34,7.5-1.71,15.09-2.37,22.71-.69C909.12,639.87,912.07,640.59,913.53,643.57Z"/><path class="cls-2" d="M534.47,28.69c-4.92,6-10.78,10.41-16.11,15.34-3.47,3.21-4.32,6.56-3.15,10.62,1.56,5.44,1.53,11.17,3.29,16.56a3.72,3.72,0,0,1-.31,3.59c-4.33-.37-7.62-3.45-11.54-5a79.52,79.52,0,0,1-9.64-5c-2.88-1.62-5.51-1.41-8.39.16-5.64,3.08-11.41,5.93-17.16,8.81a21.6,21.6,0,0,1-3,1,2.8,2.8,0,0,1-1-3.74c1.92-5,1.83-10.42,3.26-15.54,1.34-4.77.41-8.84-3.88-12.32-5.36-4.34-10.11-9.43-15.44-14.49,9.38-2.47,18.72-2.49,28.32-4.82,4.94-7,7.83-15.8,13.31-23.91,5.64,7.45,8.16,16.32,13.27,23.86C515.18,26.41,524.79,26,534.47,28.69Z"/><path class="cls-1" d="M364.27,310.87c3.43-9.54,3.23-10.38-4.49-16.84L477,214.37c4.37,10.33,5.29,10.87,16.13,9.64C488.82,228.57,368.17,309.91,364.27,310.87Z"/><path class="cls-1" d="M359.05,485.69c4-4.94,8.59-7.32,14.19-7.66,1.33-.08,2.67,0,4,0q131.39,0,262.78-.05c6.23,0,11.94,1,16.46,5.66a21.78,21.78,0,0,1,1.51,2.09Z"/><path class="cls-1" d="M437.52,405.93c-6-9.74-6-9.74-16.84-9.88l127.58-86.66c1.33,3.94-1.64,6.88-.24,9.86,1.29,2.75,3.51,4.77,6.35,7.23Z"/><path class="cls-2" d="M32.8,568.73c4.85-3.33,9.62-2.75,14.37-1.91,12.86,2.27,24,8.23,34.6,15.66a273.1,273.1,0,0,1,30.49,24.81c4.71,4.45,9.11,9.26,12.27,15,3.51,6.36,1.41,9.89-5.74,10-5.62.11-10.8-1.75-15.93-3.63C89.73,623.87,78.51,616,68,606.91A269.69,269.69,0,0,1,39.11,578C36.76,575.29,34.28,572.6,32.8,568.73Z"/><path class="cls-2" d="M953,569.07c-2.53,6.15-7.28,10.46-11.49,15-11.38,12.35-23.47,24-37.35,33.56-9.94,6.86-20.68,11.93-32.6,14.3a17.44,17.44,0,0,1-6.94.07c-4.26-.89-5.73-3.59-4.14-7.73a21.2,21.2,0,0,1,2.39-4.35c6.56-9.54,15.24-17,24.11-24.27,10.16-8.27,20.51-16.36,32.28-22.28,8.5-4.27,17.39-7.4,27.15-7.15C948.75,566.32,951,566.55,953,569.07Z"/><path class="cls-2" d="M8.19,485.42a22.36,22.36,0,0,1,9.12.48,60.32,60.32,0,0,1,24.46,13.94,196.16,196.16,0,0,1,34.47,40.4,39.59,39.59,0,0,1,5.48,11.67c1.17,4.77-.25,6.6-5.06,6.58-5.2,0-9.6-2.46-13.88-5-13.5-8-24.12-19.12-33.45-31.55C22.16,512.4,15.25,502.67,9.73,492,8.24,489.14,8.24,489.14,8.19,485.42Z"/><path class="cls-2" d="M905.63,558.11c-3.33-3.77-1.17-7.44.37-10.71a102.25,102.25,0,0,1,12.87-20.09c8.83-11,18-21.75,29.13-30.55,6.58-5.19,13.81-9.23,22.07-11.17a15.51,15.51,0,0,1,7.26-.11c1.57,2.48.15,4.59-.8,6.25-11,19.08-23.29,37.22-39.81,52a70.32,70.32,0,0,1-21.34,13.54A17,17,0,0,1,905.63,558.11Z"/><path class="cls-2" d="M473.83,758.47c5,1.51,9.46,4.32,14.06,6.74,3.59,1.89,6.29,2.08,10.06.1,4.59-2.4,9-5.35,14.73-7,.44,7.41-2.44,14-2.71,20.76,4.84,5,9.66,10,14.7,15.27-2.43,1.27-5.18,1.44-7.84,1.81a33.4,33.4,0,0,1-5.89.71c-6.84-.4-9.68,4-11.86,9.2-1.54,3.69-3.72,7-5.47,10.49-1.77-.25-2.15-1.62-2.74-2.76q-1.62-3.09-3.21-6.21c-6.18-12.11-3.2-8.94-17.34-11.26-2.93-.48-5.87-1-9.12-1.37.75-2.94,3.2-4.28,4.94-6.08a71,71,0,0,1,6.68-5.92c2.94-2.34,3.84-5,2.81-8.77-1.14-4.13-1.71-8.43-2.47-12.67A3.12,3.12,0,0,1,473.83,758.47Z"/><path class="cls-2" d="M.26,409.64c3.62-1.12,6.42.24,9.24,1.68a58.68,58.68,0,0,1,20.83,18.1c9.49,13,17.93,26.7,23.61,41.9,1.23,3.27,2.25,6.61,2,10.17-.2,3.1-1.34,4.13-4.46,3.89a14.5,14.5,0,0,1-6.86-2.66C33.83,475.63,26,465.82,19.41,455A197.76,197.76,0,0,1,1.17,415.8,37.44,37.44,0,0,1,0,411.49,6.73,6.73,0,0,1,.26,409.64Z"/><path class="cls-2" d="M931.55,485c-2.07-2.63-1.79-5.13-1.14-7.85,2-8.34,5.68-16,9.77-23.42,5.94-10.77,12.35-21.26,20.74-30.37a56.66,56.66,0,0,1,17-12.88c2.36-1.15,4.92-2.05,7.87-.79.3,3.76-1.34,7.05-2.6,10.39-6.33,16.87-13.93,33.08-25.26,47.25a70.1,70.1,0,0,1-16.79,15.53C938.23,484.71,935.27,486.05,931.55,485Z"/><path class="cls-2" d="M577.4,51.29c6.2.27,12,1.67,18.16,2.9L610.37,41c1,6.67,1.89,12.63,2.82,18.86,5,4,12.06,4.75,17.64,9.6-6,3.6-12.55,5.36-18.41,8.71-1.35,6-1.49,12.14-3.71,18.26-4.33-2.48-6.82-6.29-9.71-9.55s-6-4.14-10.16-3.27-8.78,1.1-13.7,1.67a62.32,62.32,0,0,1,7-12.52c2.14-3,2.26-5.62.42-8.69-1.54-2.56-2.67-5.36-4.19-7.92A5.69,5.69,0,0,1,577.4,51.29Z"/><path class="cls-2" d="M377.65,96.44c-2.81-5.11-2.47-10.42-3.5-15.38a5.62,5.62,0,0,0-3.76-4.66c-3.68-1.49-7.33-3-10.95-4.66-1.14-.52-2.58-.78-3.23-2.58,5-3.87,11.22-5.91,16.58-9.29.87-6,1.73-11.94,2.61-18,2.56,0,3.4,2.4,5,3.57,3.5,2.5,5.92,6.73,9.92,8.08s8.31-1.17,12.5-1.8c1.94-.3,3.87-.57,6.13-.9.54,3.62-1.52,6.3-3.13,8.61-4.27,6.15-4.58,11.62.55,17.42A19.17,19.17,0,0,1,410.63,85c-4.71.51-9.08-.65-13.38-1.36s-7.63,0-10.47,3.61A55.14,55.14,0,0,1,377.65,96.44Z"/><path class="cls-2" d="M8.57,336.35c3.5-.59,6,1.65,8.51,3.75,9.58,8,15.19,18.7,19.66,30.08,4.07,10.36,7.39,20.91,8.73,32,.39,3.28.81,6.83-2.09,8.56-3.18,1.9-6-.85-8.28-2.95-7.36-6.94-12.43-15.46-16.31-24.74C13.45,370.32,10.17,357,8,343.39a33.44,33.44,0,0,1-.2-4.48A3.21,3.21,0,0,1,8.57,336.35Z"/><path class="cls-2" d="M977.56,336.46c1.45,1.22,1.29,2.74,1.05,4.22-2.56,15.25-5.86,30.35-12.24,44.48-4.17,9.21-9.12,18.16-17.71,24.29a12,12,0,0,1-2.51,1.61c-2.86,1.09-5.11-.13-5.29-3.2a40.07,40.07,0,0,1,.28-10.45c3.12-15.2,8.12-29.78,15.93-43.26a47.57,47.57,0,0,1,14.65-16.07C973.51,336.88,975.26,335.5,977.56,336.46Z"/><path class="cls-1" d="M325.81,240.26c-1.62-2.82-1-4.83-.37-6.87,1.51-4.72,4.45-8.55,7.59-12.23,13.2-15.51,29.27-27.61,46.21-38.63,14.26-9.28,29.05-17.6,45.5-22.51a35.92,35.92,0,0,1,10.79-1.78c2.39,0,4.64.39,6.59,2.94-23,7.13-42.55,20.34-62,33.56S341.24,221.14,325.81,240.26Z"/><path class="cls-2" d="M83.91,254.25a115.11,115.11,0,0,1,12.8-9.38,26.22,26.22,0,0,1,22-2.68,8.35,8.35,0,0,1,5.08,3.62,68.69,68.69,0,0,1-12,9.18c-6.89,4.35-13.93,8.43-22.08,10-3.61.71-6.56-.13-10.17-1.79-8.24-3.79-8.4-10.47-8.92-17.58a79.56,79.56,0,0,1,6.91-37.13c1.57-.68,2.51.21,3.31,1.37A31.83,31.83,0,0,1,86,225.26a67.59,67.59,0,0,1-1.44,19.8,25.59,25.59,0,0,0-.61,9.25c-.5.14-.6.28-.29.35C83.72,254.67,83.83,254.39,83.91,254.25Z"/><path class="cls-1" d="M590.3,379.85c2,3,1.24,5.37.48,7.68a26.87,26.87,0,0,1-5.67,9.33c-24.37,27.3-53.92,47.22-87.69,61-5.24,2.13-10.69,3.74-16.47,3.61-2.34-.06-4.69-.11-6.3-3,22.91-6.83,42.23-20.12,61.52-33.3S575.12,399,590.3,379.85Z"/><path class="cls-2" d="M27.57,279.68c2.25.11,3.69,1.48,5.13,2.87,8.13,7.82,11.89,17.81,14.28,28.51a157,157,0,0,1,3.5,25.6A26.44,26.44,0,0,1,49.19,347c-1.31,3.65-3.19,4.19-6.3,1.76-4-3.16-6.59-7.55-8.65-12.05C26.3,319.26,25.4,300.73,26.07,282A2.58,2.58,0,0,1,27.57,279.68Z"/><path class="cls-2" d="M958.4,279.66c1.11.8,1.41,1.37,1.44,2.07.62,15.85.08,31.59-4.9,46.85a63,63,0,0,1-7,14.85,21.86,21.86,0,0,1-5.1,5.45c-2.62,2-4.61,1.5-5.84-1.5a12.73,12.73,0,0,1-1.09-4.33c-.55-18.37,2-36.13,11-52.5a40.23,40.23,0,0,1,6.85-8.53A7.23,7.23,0,0,1,958.4,279.66Z"/><path class="cls-2" d="M400.56,755.67c1-4.33,2-8.66,3-13.09,3.63-.16,5.21,2.6,6.75,4.6,3.06,4,6.49,5.23,11.28,3.78a17.74,17.74,0,0,1,8-.19,8.18,8.18,0,0,1-2.07,5.53c-3.54,4.38-4.57,8.8-1.07,14,1.13,1.67,3.1,3.67,2,6.79-4.62-.24-9.35-1.79-14.09-1.06-5,.77-6.54,6.39-11.18,8.27-1.75-2.58-2-5.53-2-8.39.11-4.23-1.38-6.8-5.58-8.18a14.29,14.29,0,0,1-7.52-5C391.64,759.32,396.18,757.72,400.56,755.67Z"/><path class="cls-2" d="M562.87,764.21c-1.62-5-5.33-8.51-6.59-13.3,3.79-1.31,7.16.16,10.49.76,3.17.57,5.18.05,7.31-2.53s4.27-5.45,8-6.92a33.07,33.07,0,0,1,1.71,6.84c.35,2.28.83,4.55,1.22,6.6,4.14,3,9,4,13.13,6.73-1.85,3.3-5.15,4.09-7.85,5.22-3.81,1.59-5.51,4-5.5,7.94a31,31,0,0,1-1.48,8.58c-3.19-1-5.26-3.37-7.26-5.61-2.75-3.07-5.64-4.12-9.72-2.79-2.76.91-5.82.88-9,1.3,0-2.65,1.25-4.62,2.23-6.63S561.73,766.32,562.87,764.21Z"/><path class="cls-2" d="M50.78,240.25c3,0,4.36,2.58,5.87,4.59,4.17,5.57,6.22,12,7.06,18.85,1.29,10.4,1.54,20.78-.58,31.15a21.39,21.39,0,0,1-2.65,7c-3,1.57-5,0-6.6-2.38a43.13,43.13,0,0,1-6.81-21,130.66,130.66,0,0,1,1.81-34.69C49.14,242.39,49.24,241.07,50.78,240.25Z"/><path class="cls-2" d="M934.91,239.62c3.38,5.06,3.4,10.25,3.7,15,.71,11.23,1.77,22.58-1.67,33.62-1.76,5.64-3.16,11.54-8.84,14.78a6.64,6.64,0,0,1-4.56-5.65c-2.93-16.33-3.76-32.57,3.32-48.21A20.05,20.05,0,0,1,934.91,239.62Z"/><path class="cls-2" d="M896.53,243c-2.39.75-3.92-.62-5.52-1.78-5.16-3.75-9.17-8.65-13.1-13.56q-9.78-12.24-18.29-25.43c-1.24-1.9-2.57-3.82-2.76-6.39,2.77-.82,4.79.52,6.82,1.41,11.66,5.13,20.3,13.54,26.65,24.49a68.84,68.84,0,0,1,6,13.07A11.84,11.84,0,0,1,896.53,243Z"/><path class="cls-2" d="M89.42,243.3C86.59,226.63,110.5,198,129,195.46c.28,1.91-.62,3.3-1.57,4.85a222.69,222.69,0,0,1-29.58,38.53C95.71,241.08,93.34,243.49,89.42,243.3Z"/><path class="cls-2" d="M311.4,129c-1.25-1.86-2.15-3.46-2-5.37.18-3.48-1.5-5.43-4.64-6.74-2.23-.92-4.64-1.73-6.45-3.74.1-3.17,3.34-3.21,5-3.86,4.55-1.73,6-4.81,5.95-9.23a5.91,5.91,0,0,1,1-4.13c4.65-.16,6.24,4.6,9.61,6.52,3.5.43,6.88-.52,10.61-1.23.73,4.53-2.89,7.19-3.46,11.32.86,3,3.88,5.56,4.63,9.31-2.51,1.81-4.94.13-7.26.09-3.36-.06-6.21.14-8,3.58A7.34,7.34,0,0,1,311.4,129Z"/><path class="cls-2" d="M654.85,101.65c4.51-.06,8.26,1.76,12,.76,3.58-1,4.85-5.4,8.57-6.53a13.55,13.55,0,0,1,1.41,6.42c-.19,3.22,1.3,5.06,4.24,6.48,2.25,1.09,4.86,2,6.62,4.31-3.31,2.58-7.36,3.33-10.61,5.66-.57,3.43-.8,6.91-2.13,10-2.16.24-3.06-1.16-3.87-2.26-3.46-4.71-8-5.35-13.24-3.93a3.22,3.22,0,0,1-2.42.09,7.8,7.8,0,0,1-1-.86c.61-3.67,4-6.23,4.75-10.17C658.18,108.51,655.82,105.75,654.85,101.65Z"/><path class="cls-1" d="M392,388.39c-4.13-18.31-13.2-32.95-28.86-43.12,1.79-4,3-4.59,6.6-3a19.73,19.73,0,0,1,5,3.17c9.83,8.76,17.5,19,21.49,31.72a21.9,21.9,0,0,1,1,5.35C397.5,386.16,396.79,386.89,392,388.39Z"/><path class="cls-2" d="M151.43,498.25l1.53,1.63c-3.86,2.3-8.15,3.71-12.18,5.83C143.87,502.5,147,499.42,151.43,498.25Z"/><path class="cls-2" d="M155.15,499.55c.83-1.29,1.67-1.33,2.53,0A1.64,1.64,0,0,1,155.15,499.55Z"/><path class="cls-2" d="M159.94,499.87c.89-.63,1.51-.26,2,.55C161.05,501.07,160.43,500.71,159.94,499.87Z"/><path class="cls-2" d="M73.37,275.73c.16.19.45.38.43.54s-.28.43-.43.63c-.11-.11-.32-.24-.3-.33A5.33,5.33,0,0,1,73.37,275.73Z"/><path class="cls-3" d="M175.88,651.3l.3.18-.25-.23Z"/><path class="cls-3" d="M69.91,291.24l-.19.29.24-.24Z"/><path class="cls-3" d="M83.91,254.25c-.08.14-.19.42-.24.41-.31-.07-.21-.21.29-.35Z"/></svg>